<svg width="126" height="126" viewBox="0 0 126 126" fill="none" xmlns="http://www.w3.org/2000/svg">
<circle cx="62.8325" cy="62.8325" r="62.8325" fill="url(#paint0_linear_1_106)"/>
<path d="M47.2477 48.2347L47.7865 48.1885C47.9905 48.1654 48.1752 48.0923 48.3292 47.9845L48.3253 47.9883C48.8411 49.7665 49.4723 51.637 50.2613 53.5961C51.2736 56.1594 52.2704 58.2647 53.3866 60.2969L53.2326 59.989C53.1402 61.39 53.0286 62.8295 52.8824 64.2228C52.8131 65.081 52.6437 65.8816 52.3859 66.636L52.4051 66.5667C52.3589 66.5859 52.2935 74.5723 52.2935 74.5723C52.2973 79.7798 55.9037 84.1405 60.7532 85.299L60.8302 85.3144C61.0496 84.7563 61.5807 84.3676 62.2043 84.3676H64.4135C65.0332 84.3753 65.5643 84.7602 65.7837 85.3028L65.7875 85.3144C70.7256 84.152 74.3473 79.7913 74.3666 74.58C74.3666 74.58 74.2319 66.6244 74.1626 66.5705C73.9509 65.897 73.7816 65.1041 73.693 64.2882L73.6892 64.2304C73.5545 62.8295 73.466 61.4246 73.339 59.9967C74.2896 58.2801 75.2865 56.1787 76.164 54.0118L76.3103 53.6038C77.0993 51.6447 77.7112 49.7781 78.2462 47.996C78.3963 48.1038 78.5811 48.1769 78.7812 48.2H78.7851L79.3277 48.2462C79.982 48.3155 80.5594 47.7767 80.6133 46.9415L81.1983 39.5093C81.1983 39.5055 81.1983 39.5016 81.1983 39.5016C81.1983 38.8743 80.7287 38.3585 80.1245 38.2816H80.1168H80.0513C80.2014 37.2 80.2861 35.953 80.2861 34.6867C80.2861 31.9233 79.8781 29.2522 79.1199 26.7389L79.1699 26.9352C76.9492 22.0625 72.5461 18.5255 67.2424 17.5363L67.1423 17.5209C66.0031 17.2861 64.6752 17.1283 63.3204 17.0898H63.2858H63.2396C61.8579 17.1168 60.53 17.2707 59.2445 17.544L59.3831 17.5209C53.987 18.537 49.5916 22.0741 47.3978 26.8313L47.3554 26.9352C46.6395 29.2445 46.2277 31.9002 46.2277 34.6483C46.2277 35.9299 46.3162 37.1923 46.4894 38.424L46.474 38.2816C45.8621 38.3508 45.3887 38.8627 45.3887 39.4862V39.5132L45.9737 46.9453C46.0276 47.7997 46.6126 48.3155 47.2438 48.2462L47.2477 48.2347Z" fill="#F7DECE"/>
<path d="M104.547 97.4236C104.278 85.7231 103.108 83.0751 102.476 81.2815C102.226 80.5618 102.022 75.6969 93.9859 72.5408C89.0594 70.601 82.7011 70.5625 77.3204 68.2878V74.6153C77.3089 81.4201 72.4362 87.0817 65.9894 88.3172L65.9009 88.3326C65.7816 89.0331 65.1812 89.5565 64.4615 89.5642H64.3922V94.3368C64.3922 99.0016 68.1717 102.781 72.8365 102.781C77.5013 102.781 81.2809 99.0016 81.2809 94.3368V91.0037C78.9408 90.6535 77.1665 88.6598 77.1665 86.2504C77.1665 83.5985 79.318 81.447 81.9698 81.447C84.6217 81.447 86.7732 83.5985 86.7732 86.2504C86.7732 88.3518 85.4222 90.1377 83.544 90.792L83.5094 90.8036V94.3368V94.5177C83.5094 100.414 78.7291 105.194 72.8327 105.194C66.9363 105.194 62.156 100.414 62.156 94.5177C62.156 94.4523 62.156 94.3907 62.156 94.3252V94.3329V89.518C61.4709 89.4719 60.9167 88.9561 60.8089 88.2941V88.2864C54.3044 87.0201 49.4548 81.3777 49.4394 74.5999V68.2224C44.0357 70.5433 37.6389 70.5894 32.6854 72.5331C24.6259 75.6853 24.4412 80.5387 24.1949 81.27C23.5791 83.0712 22.3936 85.7077 22.1242 97.4159C22.078 98.9554 22.1242 101.315 26.7659 103.378C36.873 107.342 49.8936 108.574 62.7295 109.459H63.9611C76.8239 108.581 89.8253 107.354 99.9247 103.378C104.547 101.326 104.589 98.9785 104.547 97.4236ZM48.0423 92.651H43.2466V97.4659H39.8212V92.6664H35.0255V89.2409H39.8212V84.4453H43.2466V89.2409H48.0423V92.651Z" fill="#577CFF"/>
<path d="M84.5673 86.2113C84.5673 84.7795 83.4088 83.6172 81.977 83.6172C80.5452 83.6172 79.3867 84.7757 79.3867 86.2075C79.3867 87.6392 80.5452 88.7977 81.977 88.7977C83.4049 88.7977 84.5634 87.6392 84.5673 86.2113Z" fill="black"/>
<defs>
<linearGradient id="paint0_linear_1_106" x1="62.8325" y1="0" x2="62.8325" y2="125.665" gradientUnits="userSpaceOnUse">
<stop stop-color="#AFC1DC"/>
<stop offset="1" stop-color="#E2E5ED"/>
</linearGradient>
</defs>
</svg>
