<svg width="127" height="126" viewBox="0 0 127 126" fill="none" xmlns="http://www.w3.org/2000/svg">
<circle cx="63.6996" cy="62.8325" r="62.8325" fill="url(#paint0_linear_1_45)"/>
<mask id="mask0_1_45" style="mask-type:alpha" maskUnits="userSpaceOnUse" x="0" y="0" width="127" height="126">
<circle cx="63.6996" cy="62.8325" r="62.8325" fill="url(#paint1_linear_1_45)"/>
</mask>
<g mask="url(#mask0_1_45)">
<path d="M77.6711 65.8867H64.7106C59.4815 65.8867 54.9902 70.3809 54.9902 75.6071V130.695H86.0616V104.576L87.3944 99.4662V75.6071C87.3944 70.378 82.9002 65.8867 77.6711 65.8867Z" fill="#577CFF"/>
<path d="M65.6492 73.8242C62.1685 73.8242 58.8305 75.2069 56.3693 77.6681C53.9081 80.1293 52.5254 83.4674 52.5254 86.948C52.5254 90.4287 53.9081 93.7668 56.3693 96.2279C58.8305 98.6891 62.1685 100.072 65.6492 100.072V73.8242Z" fill="#0072DB"/>
<path d="M65.6508 76.7422C62.9436 76.7422 60.3473 77.8176 58.433 79.7319C56.5188 81.6461 55.4434 84.2424 55.4434 86.9496C55.4434 89.6568 56.5188 92.2531 58.433 94.1673C60.3473 96.0816 62.9436 97.157 65.6508 97.157V76.7422Z" fill="#577CFF"/>
<path d="M71.4832 73.8242C68.0025 73.8242 64.6644 75.2069 62.2032 77.6681C59.7421 80.1293 58.3594 83.4674 58.3594 86.948C58.3594 90.4287 59.7421 93.7668 62.2032 96.2279C64.6644 98.6891 68.0025 100.072 71.4832 100.072V73.8242Z" fill="#0072DB"/>
<path d="M71.4828 76.7422C68.7756 76.7422 66.1793 77.8176 64.2651 79.7319C62.3508 81.6461 61.2754 84.2424 61.2754 86.9496C61.2754 89.6568 62.3508 92.2531 64.2651 94.1673C66.1793 96.0816 68.7756 97.157 71.4828 97.157V76.7422Z" fill="#577CFF"/>
<path d="M47.6082 130.693H68.4722V89.1341C67.1324 88.9 65.7755 88.778 64.4155 88.7695C57.9592 88.7695 51.7675 91.3343 47.2022 95.8995C42.637 100.465 40.0723 106.657 40.0723 113.113C40.0723 120.03 42.9712 126.26 47.6082 130.693Z" fill="#0072DB"/>
<path d="M67.9517 78.6986V91.7962C66.7833 91.5926 65.6001 91.4863 64.4141 91.4783C61.5726 91.4779 58.7589 92.0373 56.1336 93.1245C53.5084 94.2117 51.123 95.8055 49.1138 97.8147C47.1045 99.8239 45.5108 102.209 44.4236 104.835C43.3364 107.46 42.777 110.274 42.7773 113.115C42.7776 116.555 43.5995 119.945 45.1746 123.002C46.7497 126.06 49.0324 128.698 51.8328 130.695H83.0266V70.4219L67.9517 78.6986Z" fill="#577CFF"/>
<path d="M84.4268 72.3672L98.5714 87.2817L86.0659 100.438L86.06 109.321L74.5694 117.119L66.8672 105.048L83.3303 88.1041L77.6754 82.4958L84.4268 72.3672Z" fill="#0072DB"/>
<path d="M84.4233 68.7227L100.359 85.3286C100.359 85.3286 105.891 89.7849 100.359 95.049C97.0368 98.2075 76.2224 112.227 76.2224 112.227L69.7422 105.746L87.3981 88.5688L77.6748 78.8484L84.4233 68.7227Z" fill="#577CFF"/>
<path d="M72.4473 105.998C69.1693 104.438 66.0604 104.653 63.0536 106.412C61.6158 107.255 61.0296 108.83 63.2315 109.352C65.4421 109.868 72.4473 105.998 72.4473 105.998Z" fill="#EEC2AD"/>
<path d="M76.8659 111.591C77.2713 116.738 70.374 121.548 65.142 120.921C61.4032 120.471 58.1485 110.398 62.5843 109.1C66.5389 107.946 67.6326 104.353 72.3251 105.694C76.0522 106.761 76.7172 109.614 76.8659 111.591Z" fill="#F7DECE"/>
<path d="M73.4059 113.58L72.7876 112.294C72.7876 112.294 70.5391 115.639 67.4127 116.931C65.0416 117.899 63.0439 117.995 61.9969 117.823C62.446 118.678 62.4548 118.824 63.0439 119.369C66.3015 119.483 71.5073 117.736 73.4059 113.58ZM66.9402 113.466C69.8274 111.489 70.6703 109.599 70.6703 109.599L69.7283 108.406C69.7283 108.406 66.389 113.586 60.4629 113.32C60.5066 114.044 60.4483 114.184 60.6612 114.924C61.4574 114.951 64.5954 115.07 66.9402 113.466Z" fill="#E0AA94"/>
<path d="M58.5734 39.7271C58.9748 40.6819 59.1841 41.7064 59.1893 42.742C59.1946 43.7777 58.9957 44.8042 58.6041 45.763C58.2125 46.7218 57.6357 47.594 56.9069 48.3298C56.178 49.0655 55.3113 49.6505 54.3563 50.0512C53.3983 50.4459 52.3719 50.648 51.3358 50.6458C50.2997 50.6437 49.2742 50.4373 48.3178 50.0387C47.3615 49.64 46.4931 49.0567 45.7622 48.3223C45.0314 47.5878 44.4524 46.7166 44.0585 45.7583C43.6573 44.8032 43.4483 43.7783 43.4434 42.7424C43.4386 41.7065 43.6379 40.6798 44.0301 39.721C44.4223 38.7621 44.9997 37.89 45.7291 37.1545C46.4586 36.4189 47.3259 35.8343 48.2814 35.4342C49.239 35.0396 50.265 34.8376 51.3007 34.8399C52.3364 34.8421 53.3615 35.0485 54.3173 35.4472C55.2732 35.8459 56.1411 36.4291 56.8714 37.1635C57.6017 37.8979 58.1801 38.769 58.5734 39.7271Z" fill="#292F33"/>
<path d="M74.3517 60.1156C77.8601 55.9306 79.9541 50.5819 78.1547 46.2598L75.1799 39.0942C59.0989 45.1487 52.4816 36.8398 52.4816 36.8398C52.4816 36.8398 55.6313 44.4167 48.8711 48.275L52.467 56.9309C55.4067 64.0003 59.4139 69.0632 66.4745 66.1613L66.7136 67.1121C67.3144 69.4948 66.874 71.4225 70.3825 71.5567C72.8352 71.65 76.1482 67.2696 75.5474 64.8869L74.3517 60.1156Z" fill="#F7DECE"/>
<path d="M93.0947 41.4866C95.4978 35.0647 89.7146 30.1826 84.7917 29.681C81.8053 29.3777 79.1106 31.2821 77.7982 33.5627C71.8166 23.5478 62.8691 25.9072 57.1763 27.9107C51.1452 30.0339 42.1743 36.2779 45.6944 42.9885C49.2145 49.7021 60.9705 46.8149 60.9705 46.8149L65.2256 53.6742C64.0765 47.7714 67.9961 46.4532 69.8072 47.7394C71.7146 49.0955 70.4488 53.4438 71.3179 55.1587C72.187 56.8735 75.1967 59.2241 75.1967 59.2241C77.0457 56.8735 82.8815 48.7893 80.1546 38.9989C81.2833 38.576 82.9777 38.8618 84.3455 39.5763C87.8218 41.3816 85.0833 50.3758 89.9187 53.2193C94.5529 55.9461 97.271 52.1956 97.271 52.1956C92.5231 52.3531 90.7995 47.6256 93.0947 41.4866Z" fill="#292F33"/>
<path d="M54.9818 60.0657L54.0836 60.439C53.9895 60.4809 53.8879 60.5036 53.7849 60.5057C53.6818 60.5079 53.5794 60.4894 53.4836 60.4513C53.3878 60.4133 53.3006 60.3565 53.2271 60.2842C53.1537 60.212 53.0954 60.1257 53.0557 60.0306C53.016 59.9355 52.9957 59.8334 52.9961 59.7304C52.9965 59.6273 53.0174 59.5254 53.0578 59.4305C53.0981 59.3357 53.157 59.2499 53.231 59.1782C53.305 59.1064 53.3926 59.0502 53.4886 59.0128L54.3898 58.6395C54.4844 58.5952 54.5869 58.5705 54.6913 58.5669C54.7956 58.5633 54.8996 58.5808 54.997 58.6185C55.0944 58.6562 55.1831 58.7133 55.2578 58.7862C55.3326 58.8592 55.3917 58.9465 55.4318 59.0429C55.4718 59.1394 55.4919 59.2429 55.4908 59.3474C55.4897 59.4518 55.4675 59.5549 55.4254 59.6505C55.3834 59.746 55.3224 59.8321 55.2461 59.9035C55.1699 59.9748 55.08 60.03 54.9818 60.0657Z" fill="#BF6952"/>
<path d="M55.4238 54.0241C55.0455 54.1807 54.6206 54.1808 54.2422 54.0244C53.8639 53.868 53.563 53.568 53.4057 53.19L52.8078 51.758C52.6504 51.379 52.65 50.953 52.8067 50.5737C52.9634 50.1944 53.2643 49.8929 53.6433 49.7355C54.0223 49.5781 54.4484 49.5777 54.8277 49.7344C55.2069 49.8911 55.5085 50.1921 55.6659 50.5711L56.2608 52.0001C56.3392 52.1879 56.3797 52.3893 56.38 52.5928C56.3803 52.7963 56.3404 52.9979 56.2627 53.1859C56.1849 53.374 56.0708 53.5448 55.9268 53.6887C55.7829 53.8325 55.6119 53.9465 55.4238 54.0241Z" fill="#662113"/>
<path d="M56.2051 63.5675C56.9138 64.4278 57.6895 65.1453 58.5265 65.7052C61.6033 63.9291 61.8192 61.2344 61.8192 61.2344L56.3509 63.5063L56.2051 63.5675Z" fill="#DF1F32"/>
</g>
<defs>
<linearGradient id="paint0_linear_1_45" x1="63.6996" y1="0" x2="63.6996" y2="125.665" gradientUnits="userSpaceOnUse">
<stop stop-color="#AFC1DC"/>
<stop offset="1" stop-color="#E2E5ED"/>
</linearGradient>
<linearGradient id="paint1_linear_1_45" x1="63.6996" y1="0" x2="63.6996" y2="125.665" gradientUnits="userSpaceOnUse">
<stop stop-color="#AFC1DC"/>
<stop offset="1" stop-color="#E2E5ED"/>
</linearGradient>
</defs>
</svg>
