<svg width="127" height="126" viewBox="0 0 127 126" fill="none" xmlns="http://www.w3.org/2000/svg">
<circle cx="63.3012" cy="62.8325" r="62.8325" fill="url(#paint0_linear_1_96)"/>
<circle cx="66.3187" cy="54.7894" r="26.641" fill="#577CFF"/>
<path d="M72.88 57.5123C71.5149 57.5123 70.4275 57.2492 69.5536 56.8438C68.246 56.2384 67.3991 55.3054 66.866 54.3738C66.6004 53.9107 66.4164 53.4501 66.3009 53.0448C66.1854 52.6407 66.1398 52.2849 66.1411 52.0728C66.1411 51.6674 65.8136 51.3398 65.4095 51.3398C65.0054 51.3398 64.6777 51.6674 64.6777 52.0728C64.6777 52.336 64.7101 52.626 64.7745 52.9454C64.8871 53.5051 65.0965 54.1494 65.4417 54.8166C65.9557 55.8114 66.7747 56.8571 67.999 57.6492C68.3064 57.8519 68.6351 58.0331 68.9923 58.1943C69.0486 58.4371 69.1278 58.8627 69.1267 59.3796C69.1267 59.754 69.085 60.1703 68.9723 60.5985C68.8593 61.0267 68.6756 61.4617 68.3802 61.8871C68.1533 62.2213 68.234 62.675 68.5667 62.9046C68.8983 63.1343 69.3535 63.0525 69.583 62.7196C69.9829 62.1435 70.2367 61.5436 70.3872 60.973C70.5362 60.401 70.5884 59.8561 70.5884 59.3796C70.5884 59.142 70.575 58.9177 70.5563 58.7165C71.2596 58.8789 72.0303 58.9755 72.8799 58.9755C73.2839 58.9755 73.6116 58.6481 73.6116 58.2439C73.6118 57.84 73.2843 57.5123 72.88 57.5123Z" fill="#BCCBE1"/>
<path d="M76.123 48.0959C75.7713 47.8999 75.3269 48.0207 75.127 48.3739C74.9283 48.7242 75.0532 49.1699 75.4049 49.3699C75.9444 49.6786 76.2721 50.0195 76.4923 50.3727C75.5901 50.6893 74.7927 50.821 74.0853 50.821C73.0529 50.8197 72.2087 50.5472 71.4944 50.1284C70.7841 49.7109 70.211 49.1378 69.7747 48.5457C69.0567 47.5657 68.1237 46.6946 67.0229 46.0583C65.9222 45.4247 64.6508 45.0273 63.2844 45.0273C62.0883 45.0273 60.8278 45.3361 59.5767 46.022C59.0666 46.3014 58.6223 46.6288 58.237 46.9873C56.716 47.5726 55.4072 47.7847 54.2971 47.7847C52.7172 47.7819 51.5384 47.3604 50.7492 46.9443C50.3559 46.7349 50.0618 46.5281 49.8714 46.3778C49.7761 46.3014 49.7049 46.2423 49.6618 46.202L49.6189 46.1604L49.6108 46.1524C49.3302 45.8652 48.8697 45.857 48.5784 46.1361C48.2885 46.4166 48.2804 46.8785 48.5596 47.1698C48.6025 47.2116 49.1034 47.7242 50.0658 48.2358C50.4871 48.4586 51.0027 48.6774 51.5988 48.856C51.4405 49.0787 51.2241 49.4063 50.9881 49.8196C50.5358 50.6185 50.0161 51.7406 49.7531 53.0604C49.6711 53.4589 49.929 53.8429 50.3249 53.9221C50.721 54.0027 51.1048 53.7435 51.184 53.3475C51.4056 52.2348 51.8619 51.244 52.2606 50.5419C52.4607 50.1875 52.6444 49.9097 52.7774 49.7191C52.8445 49.6264 52.8969 49.5526 52.9331 49.5069C52.9506 49.4841 52.9641 49.4681 52.972 49.4573L52.9827 49.4466L52.984 49.4439C53.05 49.362 53.0942 49.2693 53.1197 49.1701C53.4914 49.2184 53.8821 49.2453 54.297 49.2453C55.0648 49.2453 55.9079 49.1541 56.8153 48.9486C56.3629 49.9166 56.179 50.9287 56.1775 51.855C56.1803 52.7866 56.3575 53.635 56.6757 54.309C56.8487 54.6728 57.2851 54.8299 57.6489 54.6566C58.0126 54.4833 58.1698 54.0486 57.9965 53.6833C57.7938 53.2616 57.6379 52.5932 57.6407 51.8549C57.6394 51.0575 57.8139 50.1823 58.2261 49.3808C58.6408 48.5808 59.2825 47.8518 60.2799 47.3041C61.3311 46.7267 62.3379 46.4906 63.2842 46.4878C64.3649 46.4906 65.3823 46.8018 66.2924 47.3255C67.2 47.8477 67.992 48.586 68.596 49.4089C69.1275 50.1351 69.839 50.8492 70.7533 51.3889C71.666 51.9286 72.7882 52.2844 74.0851 52.2816C74.9429 52.2816 75.8744 52.1287 76.8786 51.7878L76.8799 51.8389C76.8799 52.1972 76.8236 52.5233 76.7684 52.7544C76.7416 52.8672 76.7134 52.9597 76.6933 53.0175C76.6839 53.047 76.6772 53.0686 76.6718 53.0819L76.6679 53.0927V53.094C76.5203 53.4684 76.7 53.8914 77.0746 54.0417C77.4504 54.1907 77.876 54.0082 78.0263 53.635C78.0464 53.5826 78.3377 52.851 78.3418 51.839C78.3418 51.259 78.2411 50.5772 77.9015 49.9047C77.5661 49.2289 76.9874 48.5832 76.123 48.0959Z" fill="#BCCBE1"/>
<path d="M57.354 42.6345C57.8577 42.0411 58.5731 41.574 59.3878 41.2612C60.2026 40.9443 61.1102 40.7873 61.9612 40.7873C62.7882 40.7873 63.5601 40.9389 64.1239 41.2034C64.4931 41.3725 64.9265 41.2116 65.0943 40.8463C65.2635 40.4798 65.1038 40.0436 64.7385 39.8773C63.9224 39.4987 62.9612 39.3296 61.9611 39.3281C60.9329 39.3281 59.8617 39.512 58.8615 39.8961C57.8655 40.2799 56.9392 40.8666 56.2412 41.6922C55.9781 41.9995 56.017 42.46 56.3244 42.7203C56.6332 42.9834 57.0963 42.9433 57.354 42.6345Z" fill="#BCCBE1"/>
<path d="M68.652 23.1957C50.6318 22.0868 35.4574 33.4234 35.8009 51.8934L35.7876 53.5649L27.9587 67.3903C27.5371 68.1353 27.4994 69.0387 27.8567 69.8174C28.2137 70.596 28.9225 71.1557 29.7628 71.3222L34.601 72.6565L36.1205 87.3155C36.1608 88.729 36.7891 90.0608 37.8549 90.9884C38.9208 91.9174 40.3277 92.3564 41.7319 92.1992L45.5952 92.5067C46.3495 92.4234 47.1041 92.6637 47.6691 93.1712C48.2343 93.676 48.5579 94.3994 48.5579 95.158V106.678H81.2466C81.2466 106.678 81.2466 101.092 81.2466 98.864C81.2466 96.6342 82.0171 91.5386 83.4749 89.2053C88.7747 80.7321 97.401 76.2243 98.8562 58.8484C100.313 41.4697 89.9413 24.5073 68.652 23.1957ZM90.4003 52.9942C89.6674 54.2051 88.4821 54.9594 87.188 55.1823C86.7908 55.2522 86.5221 55.628 86.5894 56.0267C86.6605 56.4239 87.0377 56.6939 87.4351 56.6227C87.7318 56.5716 88.0244 56.4979 88.3131 56.4052C88.6244 57.0508 88.7801 57.7448 88.7801 58.4361C88.7801 59.1744 88.6044 59.9074 88.2674 60.5704C87.9317 61.2324 87.4351 61.8217 86.7826 62.2807C85.9624 62.8565 85.0294 63.1303 84.1032 63.1318C84.0295 63.1318 83.9568 63.1238 83.8844 63.1224C83.8682 63.0001 83.8534 62.8794 83.832 62.7599V62.7584C83.6724 61.9114 83.3408 61.1356 82.8884 60.4616L82.8332 60.3798L82.7582 60.3154C82.2051 59.8401 81.4707 59.0615 80.9042 58.2682C80.6183 57.8723 80.3755 57.4708 80.2116 57.1138C80.0465 56.7554 79.9699 56.4438 79.9727 56.2599C79.9727 56.178 79.9848 56.1215 80.0009 56.084C80.0143 56.0478 80.0277 56.0262 80.0559 55.9967C80.3406 55.7134 80.3406 55.2489 80.0559 54.9617C79.77 54.6784 79.3083 54.6784 79.0237 54.9617C78.8437 55.1389 78.7094 55.3535 78.6276 55.5805C78.5431 55.8035 78.5121 56.0355 78.5121 56.2598C78.5147 56.7658 78.6678 57.2464 78.8825 57.7217C79.2088 58.4319 79.6946 59.1366 80.2222 59.7809C80.7177 60.385 81.2425 60.9287 81.7152 61.3448C82.0414 61.8429 82.2788 62.4067 82.3957 63.0282C82.444 63.2901 82.4695 63.5504 82.4748 63.7988V63.8042C82.4748 63.8363 82.4762 63.8687 82.4762 63.9034C82.4762 65.007 82.0828 66.0527 81.4075 66.8756C80.7311 67.6971 79.7793 68.2944 78.6503 68.5066C78.3562 68.5629 78.0636 68.5898 77.7762 68.5898C76.2259 68.5911 74.792 67.8112 73.9303 66.5735C74.3948 66.1023 74.7909 65.5506 75.0915 64.9236V64.9249C75.466 64.1503 75.6633 63.3288 75.6982 62.5154C75.7157 62.1127 75.4043 61.7717 75.0016 61.7543C74.5962 61.7355 74.2564 62.0495 74.2376 62.4523C74.2122 63.0724 74.0619 63.6939 73.7759 64.2873L73.7746 64.29C73.4672 64.9249 73.0403 65.4566 72.5301 65.8768L72.5275 65.8781C71.6872 66.564 70.6279 66.9426 69.5447 66.9426C68.8629 66.9426 68.1701 66.7936 67.5123 66.4754C66.2948 65.8902 65.4491 64.8472 65.0746 63.6537H65.0733C64.931 63.2013 64.8572 62.7248 64.8572 62.247C64.8572 61.5637 65.0062 60.8709 65.3243 60.2119C65.5002 59.8481 65.3458 59.4106 64.9821 59.2373C64.6196 59.0615 64.1834 59.2131 64.0075 59.5771C63.5941 60.4361 63.394 61.3504 63.394 62.2471C63.394 62.682 63.4451 63.1116 63.5337 63.5317C62.9632 63.8432 62.3202 64.0431 61.6248 64.0927H61.6235C61.5094 64.1009 61.3979 64.1061 61.2852 64.1061C60.187 64.1061 59.1709 63.7249 58.3654 63.0791C57.6607 62.5154 57.1212 61.7569 56.8338 60.8735C57.3466 60.3676 57.7735 59.7729 58.0862 59.1137C58.258 58.7485 58.1022 58.3136 57.7373 58.1417C57.3735 57.9686 56.9345 58.1243 56.7639 58.4907C56.4753 59.103 56.0537 59.6466 55.5396 60.0802C54.8067 60.699 53.883 61.0964 52.8549 61.1704H52.8536C52.7395 61.1783 52.628 61.1837 52.5167 61.1837C50.1971 61.1837 48.2157 59.4695 47.88 57.1768L47.8787 57.1701V57.1661C47.8599 57.056 47.8478 56.9419 47.8398 56.8238C47.8318 56.7123 47.8278 56.5969 47.8278 56.4841C47.8278 56.1901 47.856 55.8989 47.9084 55.6182C47.9795 55.2208 47.7179 54.8396 47.3205 54.7658C46.9259 54.6947 46.5434 54.9538 46.4682 55.3511C46.4022 55.7188 46.3662 56.0974 46.3662 56.484L46.3675 56.5282C45.7098 56.4544 45.072 56.2436 44.5015 55.9094C43.7792 55.488 43.1657 54.8705 42.7416 54.0783C42.3644 53.3708 42.1857 52.6178 42.1857 51.8714C42.1857 50.9075 42.4852 49.9613 43.0369 49.1705C43.2504 49.4711 43.4906 49.7544 43.7604 50.0201C44.3779 50.6255 45.0921 51.0738 45.8479 51.3664C46.225 51.5143 46.6467 51.3261 46.7929 50.9477C46.9406 50.5718 46.7513 50.149 46.3768 50.0026C45.7982 49.7797 45.2558 49.4389 44.7859 48.9771V48.9758C44.3698 48.5704 44.0476 48.1085 43.818 47.6132C43.5228 46.9849 43.3751 46.3018 43.3751 45.6239C43.3762 44.4345 43.8193 43.2559 44.7133 42.3431C45.4745 41.5671 46.4329 41.1133 47.4276 40.9752H47.4289H47.4315C47.6437 40.9483 47.8557 40.9336 48.0678 40.9336C49.2546 40.9349 50.4345 41.382 51.35 42.2747C51.6387 42.5553 52.1004 42.5525 52.3837 42.2627C52.6657 41.9754 52.6604 41.5136 52.373 41.2303C51.2077 40.0892 49.699 39.5053 48.1886 39.4785C48.359 38.779 48.6867 38.1282 49.1457 37.5804C49.7834 36.8207 50.6547 36.2594 51.6964 36.0192C52.0508 35.9401 52.3997 35.8998 52.7473 35.8998C53.3595 35.8998 53.9555 36.0231 54.506 36.2461C54.3503 36.7911 54.2643 37.363 54.2643 37.9564C54.2643 38.359 54.5907 38.6852 54.9946 38.6852C55.3985 38.6852 55.7247 38.359 55.7247 37.9564C55.7247 37.3173 55.8551 36.7066 56.0833 36.1522C56.4363 35.3038 57.0337 34.5816 57.7841 34.0715C58.5371 33.5613 59.4379 33.2648 60.4165 33.2648C61.826 33.2648 63.0839 33.8808 63.9456 34.8648C64.6718 35.6904 65.1082 36.7696 65.1082 37.9564C65.1082 38.359 65.4372 38.6852 65.8398 38.6852C66.2439 38.6852 66.5728 38.359 66.5728 37.9564C66.5728 36.6058 66.1352 35.3534 65.3954 34.3399C65.7741 33.8164 66.256 33.3707 66.8143 33.0405C67.5123 32.6298 68.3245 32.3922 69.1958 32.3922C70.1998 32.3922 71.122 32.705 71.8832 33.2392C72.6471 33.7735 73.2431 34.5307 73.5801 35.4098H73.5788C73.7776 35.9321 73.8863 36.4931 73.8863 37.0852C73.8863 37.488 74.2151 37.8154 74.6179 37.8154C75.0207 37.8154 75.3508 37.488 75.3508 37.0852C75.3508 36.4811 75.2581 35.8999 75.0957 35.3482C75.963 34.5428 77.1107 34.0863 78.296 34.0863C78.9149 34.0863 79.5432 34.2085 80.1498 34.4675C80.9955 34.8341 81.6749 35.4126 82.1594 36.1188C82.6441 36.8262 82.9285 37.6558 82.9783 38.5148C82.9837 38.6034 82.9878 38.6908 82.9878 38.7792C82.985 39.3995 82.8628 40.0251 82.6025 40.6331C82.4429 41.0038 82.6145 41.4333 82.985 41.5916C83.3568 41.7514 83.785 41.5808 83.9461 41.2104C84.2173 40.5794 84.373 39.9283 84.4254 39.2747C85.1421 39.3256 85.8401 39.5431 86.4578 39.9082C87.1625 40.3244 87.7652 40.9337 88.1761 41.715C88.5358 42.3983 88.7049 43.1245 88.7064 43.844C88.7064 44.1729 88.6661 44.4991 88.5951 44.8186C88.1574 44.6468 87.7011 44.5314 87.2459 44.4642C86.8485 44.4092 86.4766 44.6884 86.4231 45.0884C86.3653 45.4886 86.6445 45.8576 87.0419 45.9127C87.5023 45.9783 87.9547 46.11 88.387 46.314C88.4622 46.439 88.5776 46.5423 88.7225 46.6055C88.8111 46.6443 88.9064 46.6633 88.9991 46.6633C89.2689 46.8431 89.5145 47.0458 89.7335 47.2673L89.7348 47.2686C90.6127 48.1531 91.0838 49.3466 91.0838 50.5668C91.0837 51.3953 90.8648 52.233 90.4003 52.9942Z" fill="#F7DECE"/>
<path d="M82.8061 46.5326C82.4436 46.2197 82.0544 45.9633 81.6421 45.7835C81.2286 45.6009 80.7937 45.4922 80.3494 45.4922C79.9454 45.4922 79.6191 45.8197 79.6191 46.2238C79.6191 46.6279 79.9454 46.9541 80.3494 46.9541C80.6179 46.9541 80.9562 47.0468 81.3159 47.2536C81.8515 47.5609 82.4087 48.1139 82.8114 48.8039C83.2196 49.4953 83.4799 50.3155 83.4773 51.1652C83.4745 52.0982 83.1806 53.0729 82.3832 54.0406C82.1281 54.3507 82.1711 54.8125 82.4824 55.0689C82.794 55.3281 83.2557 55.2824 83.5122 54.9736C84.5149 53.7614 84.9431 52.4191 84.9418 51.1652C84.9418 50.4028 84.7861 49.6725 84.5311 49.0066C84.1444 48.0092 83.5297 47.1579 82.8061 46.5326Z" fill="#C0CDE2"/>
<path d="M77.7505 43.2182C75.7409 43.2182 74.1287 42.4773 73.0118 41.5094C72.4533 41.026 72.0264 40.4865 71.7458 39.9683C71.4612 39.4515 71.3323 38.9588 71.3351 38.5896C71.3351 38.187 71.0075 37.8595 70.6048 37.8595C70.2007 37.8595 69.8731 38.187 69.8731 38.5896C69.8758 39.2757 70.0907 39.9817 70.4611 40.6665C70.8518 41.3806 71.4211 42.0746 72.1419 42.6839C71.9968 42.8853 71.7969 43.1484 71.5391 43.4263C70.9832 44.0344 70.1806 44.7069 69.2207 45.0493C68.8435 45.1835 68.6435 45.6009 68.7791 45.9821C68.9145 46.3634 69.3308 46.5594 69.7134 46.4251C71.0142 45.958 71.9861 45.1056 72.6478 44.3792C72.9419 44.0571 73.1701 43.7605 73.3406 43.5242C74.5487 44.2209 76.0428 44.6815 77.7504 44.6815C78.1544 44.6815 78.4805 44.3539 78.4805 43.9512C78.4807 43.5472 78.1544 43.2182 77.7505 43.2182Z" fill="#BCCBE1"/>
<defs>
<linearGradient id="paint0_linear_1_96" x1="63.3012" y1="0" x2="63.3012" y2="125.665" gradientUnits="userSpaceOnUse">
<stop stop-color="#AFC1DC"/>
<stop offset="1" stop-color="#E2E5ED"/>
</linearGradient>
</defs>
</svg>
